<svg version="1.1" id="Uploaded to svgrepo.com" xmlns="http://www.w3.org/2000/svg" xmlns:xlink="http://www.w3.org/1999/xlink" width="40px" height="40px" viewBox="0 0 32.00 32.00" xml:space="preserve" fill="#000000" transform="rotate(180)matrix(-1, 0, 0, 1, 0, 0)"><g id="SVGRepo_bgCarrier" stroke-width="0"></g><g id="SVGRepo_tracerCarrier" stroke-linecap="round" stroke-linejoin="round"></g><g id="SVGRepo_iconCarrier"> <style type="text/css"> .isometric_zeven{fill:#FF7344;} .isometric_tien{fill:#7BD6C4;} .isometric_dertien{fill:#225B49;} .st0{fill:#F05A28;} .st1{fill:#569080;} .st2{fill:#72C0AB;} .st3{fill:#F29227;} .st4{fill:#225B49;} .st5{fill:#BE1E2D;} .st6{fill:#F28103;} .st7{fill:#F8F7C5;} .st8{fill:#AD9A74;} .st9{fill:#F2D76C;} .st10{fill:#F5DF89;} .st11{fill:#7BD6C4;} .st12{fill:#80CCBE;} </style> <g> <path class="isometric_dertien" d="M15.984,19.219l-5.002,2.888v-3.263l5.002-2.888v-5.74L19,8.553v5.74l4.866-2.888v3.263 L19,17.557v5.781L15.984,25V19.219z"></path> <path class="isometric_zeven" d="M12.002,7.902l3.982,2.313v5.74l-3.982-2.313V7.902z M12.002,22.687L15.984,25v-5.781 l-3.982,2.299V22.687z M7,16.531v3.263l3.982,2.313v-3.263L7,16.531z"></path> <path class="isometric_tien" d="M12.002,13.643l3.982,2.313l-5.002,2.888L7,16.531L12.002,13.643z M19,9.682v4.612l4.866-2.888 l-3.982-2.313L19,9.682z M19,8.553L14.882,6.24l-2.879,1.662l3.982,2.313L19,8.553z"></path> </g> </g></svg>