<svg width="112" height="20" viewBox="0 0 112 20" fill="none" xmlns="http://www.w3.org/2000/svg">
<path d="M19.9478 7.55776C19.8169 7.13517 19.4577 6.83502 19.0327 6.79506L13.2602 6.24811L10.9776 0.673057C10.8093 0.264478 10.426 0 10.0001 0C9.5742 0 9.19089 0.264478 9.02258 0.674012L6.73996 6.24811L0.966512 6.79506C0.542308 6.83598 0.184023 7.13517 0.0523364 7.55776C-0.0793501 7.98035 0.0422653 8.44386 0.363165 8.73605L4.72652 12.7292L3.43987 18.6434C3.34572 19.0782 3.50747 19.5277 3.85324 19.7885C4.03909 19.9287 4.25654 20 4.47581 20C4.66487 20 4.85241 19.9468 5.02072 19.8417L10.0001 16.7363L14.9776 19.8417C15.3419 20.0704 15.801 20.0495 16.146 19.7885C16.4919 19.5269 16.6535 19.0773 16.5594 18.6434L15.2727 12.7292L19.6361 8.73684C19.957 8.44386 20.0795 7.98115 19.9478 7.55776Z" fill="#FFC107"/>
<path d="M42.9478 7.55776C42.8169 7.13517 42.4577 6.83502 42.0327 6.79506L36.2602 6.24811L33.9776 0.673057C33.8093 0.264478 33.426 0 33.0001 0C32.5742 0 32.1909 0.264478 32.0226 0.674012L29.74 6.24811L23.9665 6.79506C23.5423 6.83598 23.184 7.13517 23.0523 7.55776C22.9206 7.98035 23.0423 8.44386 23.3632 8.73605L27.7265 12.7292L26.4399 18.6434C26.3457 19.0782 26.5075 19.5277 26.8532 19.7885C27.0391 19.9287 27.2565 20 27.4758 20C27.6649 20 27.8524 19.9468 28.0207 19.8417L33.0001 16.7363L37.9776 19.8417C38.3419 20.0704 38.801 20.0495 39.146 19.7885C39.4919 19.5269 39.6535 19.0773 39.5594 18.6434L38.2727 12.7292L42.6361 8.73684C42.957 8.44386 43.0795 7.98115 42.9478 7.55776Z" fill="#FFC107"/>
<path d="M65.9478 7.55776C65.8169 7.13517 65.4577 6.83502 65.0327 6.79506L59.2602 6.24811L56.9776 0.673057C56.8093 0.264478 56.426 0 56.0001 0C55.5742 0 55.1909 0.264478 55.0226 0.674012L52.74 6.24811L46.9665 6.79506C46.5423 6.83598 46.184 7.13517 46.0523 7.55776C45.9206 7.98035 46.0423 8.44386 46.3632 8.73605L50.7265 12.7292L49.4399 18.6434C49.3457 19.0782 49.5075 19.5277 49.8532 19.7885C50.0391 19.9287 50.2565 20 50.4758 20C50.6649 20 50.8524 19.9468 51.0207 19.8417L56.0001 16.7363L60.9776 19.8417C61.3419 20.0704 61.801 20.0495 62.146 19.7885C62.4919 19.5269 62.6535 19.0773 62.5594 18.6434L61.2727 12.7292L65.6361 8.73684C65.957 8.44386 66.0795 7.98115 65.9478 7.55776Z" fill="#FFC107"/>
<path d="M88.9478 7.55776C88.8169 7.13517 88.4577 6.83502 88.0327 6.79506L82.2602 6.24811L79.9776 0.673057C79.8093 0.264478 79.426 0 79.0001 0C78.5742 0 78.1909 0.264478 78.0226 0.674012L75.74 6.24811L69.9665 6.79506C69.5423 6.83598 69.184 7.13517 69.0523 7.55776C68.9206 7.98035 69.0423 8.44386 69.3632 8.73605L73.7265 12.7292L72.4399 18.6434C72.3457 19.0782 72.5075 19.5277 72.8532 19.7885C73.0391 19.9287 73.2565 20 73.4758 20C73.6649 20 73.8524 19.9468 74.0207 19.8417L79.0001 16.7363L83.9776 19.8417C84.3419 20.0704 84.801 20.0495 85.146 19.7885C85.4919 19.5269 85.6535 19.0773 85.5594 18.6434L84.2727 12.7292L88.6361 8.73684C88.957 8.44386 89.0795 7.98115 88.9478 7.55776Z" fill="#FFC107"/>
<path d="M111.948 7.55776C111.817 7.13517 111.458 6.83502 111.033 6.79506L105.26 6.24811L102.978 0.673057C102.809 0.264478 102.426 0 102 0C101.574 0 101.191 0.264478 101.023 0.674012L98.74 6.24811L92.9665 6.79506C92.5423 6.83598 92.184 7.13517 92.0523 7.55776C91.9206 7.98035 92.0423 8.44386 92.3632 8.73605L96.7265 12.7292L95.4399 18.6434C95.3457 19.0782 95.5075 19.5277 95.8532 19.7885C96.0391 19.9287 96.2565 20 96.4758 20C96.6649 20 96.8524 19.9468 97.0207 19.8417L102 16.7363L106.978 19.8417C107.342 20.0704 107.801 20.0495 108.146 19.7885C108.492 19.5269 108.654 19.0773 108.559 18.6434L107.273 12.7292L111.636 8.73684C111.957 8.44386 112.08 7.98115 111.948 7.55776Z" fill="#FFC107"/>
</svg>
