<svg width="180" height="180" viewBox="0 0 180 180" fill="none" xmlns="http://www.w3.org/2000/svg">
<path d="M80.8596 156.094C70.4037 156.09 60.0977 153.607 50.7884 148.846C41.479 144.086 33.4319 137.185 27.3082 128.71C21.1844 120.235 17.1587 110.428 15.5618 100.094C13.9649 89.7611 14.8423 79.1964 18.1221 69.2682C21.4018 59.34 26.9902 50.3316 34.4282 42.983C41.8662 35.6344 50.9416 30.1553 60.9087 26.9958C70.8759 23.8364 81.4504 23.0867 91.7635 24.8085C102.077 26.5302 111.834 30.6742 120.235 36.9C121.359 37.8136 122.087 39.1257 122.268 40.5629C122.449 42.0002 122.069 43.4519 121.206 44.6156C120.343 45.7793 119.064 46.5652 117.637 46.8097C116.209 47.0542 114.742 46.7384 113.541 45.9281C103.626 38.5669 91.5176 34.7654 79.1744 35.1383C66.8311 35.5112 54.9745 40.0368 45.522 47.9832C36.0694 55.9296 29.5737 66.8322 27.0852 78.9277C24.5968 91.0233 26.2611 103.605 31.809 114.637C37.3569 125.67 46.4641 134.508 57.6577 139.723C68.8513 144.939 81.4768 146.226 93.4925 143.376C105.508 140.527 116.211 133.708 123.871 124.022C131.531 114.336 135.7 102.349 135.703 90C135.695 87.1079 135.46 84.2209 135 81.3656C134.886 80.6269 134.918 79.8729 135.095 79.1467C135.272 78.4204 135.59 77.7361 136.031 77.1328C136.473 76.5295 137.028 76.0191 137.667 75.6306C138.306 75.2421 139.015 74.9833 139.753 74.8688C140.492 74.7543 141.246 74.7864 141.972 74.9633C142.699 75.1402 143.383 75.4584 143.986 75.8998C144.589 76.3411 145.1 76.897 145.488 77.5357C145.877 78.1743 146.136 78.8832 146.25 79.6219C146.753 83.0578 146.988 86.5276 146.953 90C146.938 107.525 139.97 124.327 127.578 136.719C115.187 149.111 98.3842 156.079 80.8596 156.094Z" fill="#5564D7"/>
<path d="M87.8907 111.094C86.4013 111.087 84.9751 110.491 83.9251 109.434L57.2063 82.7155C56.2848 81.6394 55.8033 80.2552 55.858 78.8395C55.9126 77.4239 56.4995 76.081 57.5013 75.0792C58.5031 74.0774 59.846 73.4905 61.2617 73.4358C62.6773 73.3812 64.0615 73.8627 65.1376 74.7842L87.8907 97.5092L155.644 29.7842C156.72 28.8627 158.104 28.3812 159.52 28.4358C160.935 28.4905 162.278 29.0774 163.28 30.0792C164.282 31.081 164.869 32.4239 164.923 33.8395C164.978 35.2552 164.497 36.6394 163.575 37.7155L91.8563 109.434C90.8063 110.491 89.3801 111.087 87.8907 111.094Z" fill="#FF8B6A"/>
</svg>
