<svg width="10" height="10" viewBox="0 0 10 10" fill="none" xmlns="http://www.w3.org/2000/svg">
<path d="M4.99996 5.41634C4.8731 5.41486 4.74884 5.45227 4.64389 5.52355C4.53895 5.59483 4.45835 5.69655 4.41296 5.81501C4.36758 5.93348 4.35957 6.063 4.39002 6.18616C4.42047 6.30931 4.48792 6.42018 4.58329 6.50384V7.08301C4.58329 7.19351 4.62719 7.2995 4.70533 7.37764C4.78347 7.45578 4.88945 7.49967 4.99996 7.49967C5.11047 7.49967 5.21645 7.45578 5.29459 7.37764C5.37273 7.2995 5.41663 7.19351 5.41663 7.08301V6.50384C5.51199 6.42018 5.57945 6.30931 5.6099 6.18616C5.64035 6.063 5.63234 5.93348 5.58695 5.81501C5.54156 5.69655 5.46097 5.59483 5.35602 5.52355C5.25108 5.45227 5.12681 5.41486 4.99996 5.41634ZM7.08329 3.74967V2.91634C7.08329 2.36381 6.8638 1.8339 6.4731 1.4432C6.0824 1.0525 5.55249 0.833008 4.99996 0.833008C4.44742 0.833008 3.91752 1.0525 3.52682 1.4432C3.13612 1.8339 2.91663 2.36381 2.91663 2.91634V3.74967C2.58511 3.74967 2.26716 3.88137 2.03274 4.11579C1.79832 4.35021 1.66663 4.66815 1.66663 4.99967V7.91634C1.66663 8.24786 1.79832 8.5658 2.03274 8.80023C2.26716 9.03465 2.58511 9.16634 2.91663 9.16634H7.08329C7.41481 9.16634 7.73276 9.03465 7.96718 8.80023C8.2016 8.5658 8.33329 8.24786 8.33329 7.91634V4.99967C8.33329 4.66815 8.2016 4.35021 7.96718 4.11579C7.73276 3.88137 7.41481 3.74967 7.08329 3.74967ZM3.74996 2.91634C3.74996 2.58482 3.88166 2.26688 4.11608 2.03246C4.3505 1.79804 4.66844 1.66634 4.99996 1.66634C5.33148 1.66634 5.64942 1.79804 5.88384 2.03246C6.11826 2.26688 6.24996 2.58482 6.24996 2.91634V3.74967H3.74996V2.91634ZM7.49996 7.91634C7.49996 8.02685 7.45606 8.13283 7.37792 8.21097C7.29978 8.28911 7.1938 8.33301 7.08329 8.33301H2.91663C2.80612 8.33301 2.70014 8.28911 2.622 8.21097C2.54386 8.13283 2.49996 8.02685 2.49996 7.91634V4.99967C2.49996 4.88917 2.54386 4.78319 2.622 4.70505C2.70014 4.62691 2.80612 4.58301 2.91663 4.58301H7.08329C7.1938 4.58301 7.29978 4.62691 7.37792 4.70505C7.45606 4.78319 7.49996 4.88917 7.49996 4.99967V7.91634Z" fill="#D97356"/>
</svg>